<svg width="49" height="49" viewBox="0 0 49 49" fill="none" xmlns="http://www.w3.org/2000/svg">
<path d="M1.77943 33.2457L1.77943 14.8132L14.8132 1.77942L33.2457 1.77942L46.2794 14.8132V33.2457L33.2457 46.2794H14.8132L1.77943 33.2457Z" fill="#C0261C"/>
<path d="M1.77943 33.2457L1.77943 14.8132L14.8132 1.77942L33.2457 1.77942L46.2794 14.8132V33.2457L33.2457 46.2794H14.8132L1.77943 33.2457Z" stroke="white" stroke-width="3.5"/>
<path d="M1.77943 33.2457L1.77943 14.8132L14.8132 1.77942L33.2457 1.77942L46.2794 14.8132V33.2457L33.2457 46.2794H14.8132L1.77943 33.2457Z" stroke="black" stroke-opacity="0.05" stroke-width="3.5"/>
<path d="M6.70312 20.4787V17.9091H17.7678V20.4787H13.7983V31H10.679V20.4787H6.70312ZM19.313 31V17.9091H22.4771V28.4304H27.9231V31H19.313ZM32.7635 17.9091L35.1541 22.0447H35.2564L37.6726 17.9091H41.2138L37.2635 24.4545L41.3416 31H37.7109L35.2564 26.8196H35.1541L32.6996 31H29.0945L33.1534 24.4545L29.1967 17.9091H32.7635Z" fill="white"/>
</svg>
